<?xml version="1.0" encoding="UTF-8" standalone="no"?>
<!DOCTYPE svg PUBLIC "-//W3C//DTD SVG 1.1//EN" "http://www.w3.org/Graphics/SVG/1.1/DTD/svg11.dtd">
<svg version="1.1" xmlns="http://www.w3.org/2000/svg" xmlns:xlink="http://www.w3.org/1999/xlink" preserveAspectRatio="xMidYMid meet" viewBox="0 0 640 640" width="640" height="640"><defs><path d="M593.31 159.34C582.83 174.48 574.37 190.83 565.15 206.72C484.62 345.44 404.25 484.25 323.83 623.04C319.99 629.65 320.01 629.65 316.17 623.04C227.65 470.27 139.13 317.51 50.57 164.78C49.46 162.87 48.81 160.56 46.69 159.34C46.69 159.2 46.69 158.11 46.69 157.97C83.18 158.05 119.66 158.13 156.15 158.21C160.67 166.1 165.15 174 169.71 181.86C195.24 225.92 220.79 269.96 246.32 314C269.91 354.71 293.5 395.41 317.02 436.16C319.26 440.04 320.77 440.04 322.98 436.16C331.32 421.55 339.81 407.03 348.25 392.48C375.83 344.9 403.43 297.32 430.99 249.72C448.64 219.24 466.23 188.72 483.85 158.21C520.34 158.13 556.82 158.05 593.31 157.97" id="a6qwe2IiC"></path><path d="M512.59 12L321.96 331.64L251.92 214.59L188.87 214.59L319.91 440.61L574.65 12" id="a3u5otrGM"></path></defs><g><g><g><use xlink:href="#a6qwe2IiC" opacity="1" fill="#35495e" fill-opacity="1"></use><g><use xlink:href="#a6qwe2IiC" opacity="1" fill-opacity="0" stroke="#000000" stroke-width="1" stroke-opacity="0"></use></g></g><g><use xlink:href="#a3u5otrGM" opacity="1" fill="#41b783" fill-opacity="1"></use><g><use xlink:href="#a3u5otrGM" opacity="1" fill-opacity="0" stroke="#000000" stroke-width="1" stroke-opacity="0"></use></g></g></g></g></svg>