<svg fill="none" xmlns="http://www.w3.org/2000/svg" viewBox="0 0 170 50"><rect width="170" height="50" rx="6" fill="#181818"/><g clip-path="url(#a)" fill="#fff"><path d="m12 35.4386 6.246-19.9903h4.6929l-6.246 19.9491L12 35.4386Zm19.98-1.7872v-5.7561l3.744-2.2166-3.744-2.2153v-5.7188l13.5707 7.9328-13.5707 7.974ZM26.0015 29.4253c2.0095 0 3.6386-1.629 3.6386-3.6386 0-2.0095-1.6291-3.6385-3.6386-3.6385s-3.6386 1.629-3.6386 3.6385c0 2.0096 1.6291 3.6386 3.6386 3.6386ZM55.2103 25.3727c0-2.0661.594-3.7453 1.7807-5.0374 1.188-1.2922 2.736-1.9376 4.6453-1.9376 1.4567 0 2.6229.387 3.4997 1.1623v-.873h4.41v13.6736c0 1.9414-.63 3.501-1.8912 4.68-1.2613 1.1803-2.952 1.7704-5.0696 1.7704-2.1574 0-3.8237-.4757-4.9989-1.4246-1.1764-.9501-1.8848-2.2654-2.1265-3.9471l4.6632-.1594c.0296.4525.2675.8665.6442 1.1198.387.27.9308.4037 1.6303.4037.783 0 1.3937-.18 1.8308-.5361.4385-.3574.657-.8949.657-1.6123v-1.269c-.8254.6171-1.9093.9244-3.249.9244-1.9093 0-3.4585-.6428-4.6453-1.9298-1.1867-1.287-1.7807-2.9572-1.7807-5.0079Zm4.7122 0c0 .9257.225 1.6457.675 2.1626.2331.2431.5126.437.8219.5703.3093.1332.6423.2031.9791.2055.3368.0024.6707-.0627.9819-.1916.3112-.1288.5934-.3187.8299-.5585.4667-.5439.7072-1.2471.675-1.962v-.4886c.0325-.716-.2089-1.4175-.675-1.962-.2366-.24-.519-.43-.8305-.5587-.3115-.1287-.6457-.1934-.9827-.1904-.337.003-.67.0737-.9792.2079-.3091.1342-.5881.3292-.8204.5734-.4487.5207-.6737 1.251-.675 2.1921Zm13.8394 5.0644c-1.2793-1.251-1.9183-2.9391-1.9183-5.0644s.6352-3.8186 1.9054-5.0786c1.2703-1.2638 2.9379-1.8951 5.0053-1.8951 1.9672 0 3.546.5914 4.7379 1.7756 1.1906 1.1828 1.7871 2.8285 1.7871 4.9371v1.512h-8.496c-.0283.5529.1427 1.0954.4822 1.5326.3201.378.81.567 1.4683.567.9 0 1.4695-.3407 1.7138-1.0247l4.6942.2185c-.1018.6508-.3412 1.2723-.7021 1.8233-.3609.5509-.8352 1.0185-1.3911 1.3717-1.1816.7972-2.5753 1.1932-4.1811 1.1919-2.1305.0039-3.8315-.6171-5.1056-1.8669Zm3.0214-6.5507h3.762c.0091-.5449-.1693-1.0764-.5053-1.5055-.171-.1863-.3817-.3318-.6164-.426-.2348-.0941-.4876-.1344-.74-.1179-.2506-.0121-.5007.0309-.7329.126-.2321.095-.4406.2399-.6107.4243-.3505.4224-.5469.9516-.5567 1.5004v-.0013Zm9.7367-1.2073V18.687h2.4378l.0257-4.2879h4.6594l-.0231 4.2879h2.8362v3.9921h-2.8517l-.0244 3.8482c-.0283.4937.1633.9746.5246 1.3114.342.3124.7894.4847 1.2535.4822.369 0 .7368-.0348 1.0993-.1003v3.9291c-.7457.0939-1.4978.1453-2.25.1543-1.6495 0-2.9481-.3883-3.8931-1.1661-.9463-.7779-1.4156-1.9415-1.4104-3.4895l.0282-4.9693H86.52Zm10.8245 0V18.687h2.3052v-.8679c0-1.746.5583-3.1525 1.6763-4.2197C102.444 12.5323 103.921 12 105.758 12c.499-.0039.995.0321 1.488.1106v3.9651c-.317-.0554-.638-.0804-.959-.0746-.515-.0192-1.019.1543-1.411.4886-.179.1488-.323.3361-.42.548-.098.2118-.146.4429-.142.676v.972h2.925v3.9922h-2.934v9.3432h-4.6553v-9.342h-2.3052Zm11.3115 2.6936c0-2.0738.671-3.753 2.015-5.0374 1.343-1.2832 3.074-1.9273 5.193-1.9299 2.124 0 3.863.6429 5.219 1.9299 1.353 1.287 2.031 2.9661 2.031 5.0374 0 2.0752-.678 3.7504-2.031 5.0259-1.356 1.2741-3.095 1.9118-5.22 1.9118-1.292.0225-2.569-.2715-3.721-.8563-1.072-.5504-1.962-1.3992-2.563-2.4441-.629-1.1074-.948-2.3639-.923-3.6373Zm4.712 0c0 .909.228 1.6252.682 2.1497.454.5259 1.121.8152 1.813.7882.348.0169.695-.0446 1.017-.1798.321-.1353.608-.341.839-.6019.455-.5195.682-1.2382.682-2.1562-.002-.9167-.228-1.6457-.678-2.1857-.23-.2624-.516-.4696-.838-.606-.321-.1365-.669-.1987-1.017-.1821-.345-.0151-.688.0486-1.004.1863-.316.1377-.597.3457-.821.6082-.45.5297-.676 1.2575-.675 2.1793Zm12.348 6.6497V18.6857h4.5v1.125c.767-.8344 1.938-1.251 3.512-1.2497v4.5c-1.024 0-1.839.2443-2.443.7367-.297.2394-.533.545-.691.8921-.157.3472-.231.7263-.216 1.1072v6.2229h-4.662v.0025Zm10.286 0V18.6857h4.401v.927c.649-.8061 1.691-1.2086 3.124-1.2086 1.843 0 3.217.6095 4.126 1.8296.882-1.2201 2.17-1.8296 3.862-1.8296 1.582 0 2.83.4629 3.748 1.3886.918.9257 1.376 2.2372 1.376 3.9369v8.2915h-4.662v-7.1768c0-1.3809-.537-2.0713-1.612-2.0713-.24-.0154-.479.0248-.701.1176-.221.0928-.418.2356-.575.4173-.293.36-.438.8794-.437 1.5621v7.1511h-4.662v-7.1768c0-1.3809-.546-2.0713-1.637-2.0713-.236-.0151-.473.0254-.692.1183-.218.0928-.412.2355-.565.4166-.285.36-.431.8794-.431 1.5621v7.1511h-4.663v.0013Z"/></g><defs><clipPath id="a"><path fill="#fff" transform="translate(12 12)" d="M0 0h145.286v27H0z"/></clipPath></defs></svg>